<mxfile host="app.diagrams.net" modified="2023-06-13T15:36:01.084Z" agent="Mozilla/5.0 (Windows NT 6.1; Win64; x64) AppleWebKit/537.36 (KHTML, like Gecko) Chrome/109.0.0.0 Safari/537.36" etag="hRUcOnqNTiwsGKQ7cRC_" version="21.3.8" type="github">
  <diagram name="페이지-1" id="QzqCbPeG6nreFmwOw0xu">
    <mxGraphModel dx="3354" dy="1735" grid="1" gridSize="10" guides="1" tooltips="1" connect="1" arrows="1" fold="1" page="1" pageScale="1" pageWidth="827" pageHeight="1169" math="0" shadow="0">
      <root>
        <mxCell id="0" />
        <mxCell id="1" parent="0" />
        <mxCell id="HM1GTfsJV7F2ZgDRPwna-33" value="" style="edgeStyle=orthogonalEdgeStyle;rounded=0;orthogonalLoop=1;jettySize=auto;html=1;entryX=0.082;entryY=-0.036;entryDx=0;entryDy=0;entryPerimeter=0;shadow=1;" edge="1" parent="1" source="HM1GTfsJV7F2ZgDRPwna-1" target="HM1GTfsJV7F2ZgDRPwna-62">
          <mxGeometry relative="1" as="geometry">
            <mxPoint x="70" y="160" as="targetPoint" />
          </mxGeometry>
        </mxCell>
        <mxCell id="HM1GTfsJV7F2ZgDRPwna-78" style="edgeStyle=orthogonalEdgeStyle;rounded=0;orthogonalLoop=1;jettySize=auto;html=1;fontFamily=Helvetica;fontSize=12;fontColor=default;startSize=30;entryX=0;entryY=0.5;entryDx=0;entryDy=0;shadow=1;" edge="1" parent="1" source="HM1GTfsJV7F2ZgDRPwna-1" target="HM1GTfsJV7F2ZgDRPwna-79">
          <mxGeometry relative="1" as="geometry">
            <mxPoint x="575" y="60" as="targetPoint" />
          </mxGeometry>
        </mxCell>
        <mxCell id="HM1GTfsJV7F2ZgDRPwna-1" value="&lt;b&gt;인류의 출현&lt;br&gt;(약 390만 년 전)&lt;/b&gt;" style="rounded=1;whiteSpace=wrap;html=1;fillColor=#fff2cc;strokeColor=#d6b656;shadow=1;" vertex="1" parent="1">
          <mxGeometry x="10" y="40" width="110" height="40" as="geometry" />
        </mxCell>
        <mxCell id="HM1GTfsJV7F2ZgDRPwna-77" value="" style="edgeStyle=orthogonalEdgeStyle;rounded=0;orthogonalLoop=1;jettySize=auto;html=1;fontFamily=Helvetica;fontSize=12;fontColor=default;startSize=30;exitX=0.895;exitY=1.025;exitDx=0;exitDy=0;entryX=1;entryY=0.5;entryDx=0;entryDy=0;exitPerimeter=0;shadow=1;" edge="1" parent="1" source="HM1GTfsJV7F2ZgDRPwna-69" target="HM1GTfsJV7F2ZgDRPwna-76">
          <mxGeometry relative="1" as="geometry">
            <mxPoint x="477" y="269" as="targetPoint" />
            <Array as="points">
              <mxPoint x="512" y="240" />
            </Array>
          </mxGeometry>
        </mxCell>
        <mxCell id="HM1GTfsJV7F2ZgDRPwna-62" value="인류의 진화과정" style="shape=table;startSize=30;container=1;collapsible=0;childLayout=tableLayout;movable=1;resizable=1;rotatable=1;deletable=1;editable=1;locked=0;connectable=1;fillColor=#ffe6cc;strokeColor=#d79b00;shadow=1;" vertex="1" parent="1">
          <mxGeometry x="20" y="110" width="550" height="110" as="geometry" />
        </mxCell>
        <mxCell id="HM1GTfsJV7F2ZgDRPwna-63" value="" style="shape=tableRow;horizontal=0;startSize=0;swimlaneHead=0;swimlaneBody=0;strokeColor=inherit;top=0;left=0;bottom=0;right=0;collapsible=0;dropTarget=0;fillColor=none;points=[[0,0.5],[1,0.5]];portConstraint=eastwest;movable=1;resizable=1;rotatable=1;deletable=1;editable=1;locked=0;connectable=1;shadow=1;" vertex="1" parent="HM1GTfsJV7F2ZgDRPwna-62">
          <mxGeometry y="30" width="550" height="40" as="geometry" />
        </mxCell>
        <mxCell id="HM1GTfsJV7F2ZgDRPwna-64" value="이름" style="shape=partialRectangle;html=1;whiteSpace=wrap;connectable=0;strokeColor=inherit;overflow=hidden;fillColor=none;top=0;left=0;bottom=0;right=0;pointerEvents=1;shadow=1;" vertex="1" parent="HM1GTfsJV7F2ZgDRPwna-63">
          <mxGeometry width="30" height="40" as="geometry">
            <mxRectangle width="30" height="40" as="alternateBounds" />
          </mxGeometry>
        </mxCell>
        <mxCell id="HM1GTfsJV7F2ZgDRPwna-65" value="&lt;b&gt;오스트랄로피테쿠스&lt;br&gt;아파렌시스&lt;/b&gt;" style="shape=partialRectangle;html=1;whiteSpace=wrap;connectable=1;strokeColor=inherit;overflow=hidden;fillColor=none;top=0;left=0;bottom=0;right=0;pointerEvents=1;movable=1;resizable=1;rotatable=1;deletable=1;editable=1;locked=0;shadow=1;" vertex="1" parent="HM1GTfsJV7F2ZgDRPwna-63">
          <mxGeometry x="30" width="140" height="40" as="geometry">
            <mxRectangle width="140" height="40" as="alternateBounds" />
          </mxGeometry>
        </mxCell>
        <mxCell id="HM1GTfsJV7F2ZgDRPwna-66" value="&lt;b&gt;호모 에렉투스&lt;/b&gt;" style="shape=partialRectangle;html=1;whiteSpace=wrap;connectable=0;strokeColor=inherit;overflow=hidden;fillColor=none;top=0;left=0;bottom=0;right=0;pointerEvents=1;shadow=1;" vertex="1" parent="HM1GTfsJV7F2ZgDRPwna-63">
          <mxGeometry x="170" width="90" height="40" as="geometry">
            <mxRectangle width="90" height="40" as="alternateBounds" />
          </mxGeometry>
        </mxCell>
        <mxCell id="HM1GTfsJV7F2ZgDRPwna-67" value="&lt;b&gt;호모 네안데르탈렌시스&lt;/b&gt;" style="shape=partialRectangle;html=1;whiteSpace=wrap;connectable=0;strokeColor=inherit;overflow=hidden;fillColor=none;top=0;left=0;bottom=0;right=0;pointerEvents=1;shadow=1;" vertex="1" parent="HM1GTfsJV7F2ZgDRPwna-63">
          <mxGeometry x="260" width="170" height="40" as="geometry">
            <mxRectangle width="170" height="40" as="alternateBounds" />
          </mxGeometry>
        </mxCell>
        <mxCell id="HM1GTfsJV7F2ZgDRPwna-68" value="&lt;font style=&quot;font-size: 13px;&quot;&gt;&lt;b&gt;호모 사피엔스&lt;/b&gt;&lt;/font&gt;" style="shape=partialRectangle;html=1;whiteSpace=wrap;connectable=1;strokeColor=inherit;overflow=hidden;fillColor=none;top=0;left=0;bottom=0;right=0;pointerEvents=1;movable=1;resizable=1;rotatable=1;deletable=1;editable=1;locked=0;fontColor=default;shadow=1;" vertex="1" parent="HM1GTfsJV7F2ZgDRPwna-63">
          <mxGeometry x="430" width="120" height="40" as="geometry">
            <mxRectangle width="120" height="40" as="alternateBounds" />
          </mxGeometry>
        </mxCell>
        <mxCell id="HM1GTfsJV7F2ZgDRPwna-69" value="" style="shape=tableRow;horizontal=0;startSize=0;swimlaneHead=0;swimlaneBody=0;strokeColor=inherit;top=0;left=0;bottom=0;right=0;collapsible=0;dropTarget=0;fillColor=none;points=[[0,0.5],[1,0.5]];portConstraint=eastwest;shadow=1;" vertex="1" parent="HM1GTfsJV7F2ZgDRPwna-62">
          <mxGeometry y="70" width="550" height="40" as="geometry" />
        </mxCell>
        <mxCell id="HM1GTfsJV7F2ZgDRPwna-70" value="특징" style="shape=partialRectangle;html=1;whiteSpace=wrap;connectable=0;strokeColor=inherit;overflow=hidden;fillColor=none;top=0;left=0;bottom=0;right=0;pointerEvents=1;shadow=1;" vertex="1" parent="HM1GTfsJV7F2ZgDRPwna-69">
          <mxGeometry width="30" height="40" as="geometry">
            <mxRectangle width="30" height="40" as="alternateBounds" />
          </mxGeometry>
        </mxCell>
        <mxCell id="HM1GTfsJV7F2ZgDRPwna-71" value="&lt;b&gt;아프리카&lt;/b&gt; 출현/&lt;b&gt;두 발&lt;/b&gt;로&lt;br&gt;걷고 &lt;b&gt;간단한 도구&lt;/b&gt;를 사용&lt;b&gt;&lt;span style=&quot;font-size: 10pt; font-family: &amp;quot;맑은 고딕&amp;quot;; color: rgb(0, 117, 200); font-size: 10pt;&quot;&gt;&lt;/span&gt;&lt;/b&gt;" style="shape=partialRectangle;html=1;whiteSpace=wrap;connectable=0;strokeColor=inherit;overflow=hidden;fillColor=none;top=0;left=0;bottom=0;right=0;pointerEvents=1;shadow=1;" vertex="1" parent="HM1GTfsJV7F2ZgDRPwna-69">
          <mxGeometry x="30" width="140" height="40" as="geometry">
            <mxRectangle width="140" height="40" as="alternateBounds" />
          </mxGeometry>
        </mxCell>
        <mxCell id="HM1GTfsJV7F2ZgDRPwna-72" value="&lt;b&gt;불과 언어사용&lt;/b&gt;" style="shape=partialRectangle;html=1;whiteSpace=wrap;connectable=0;strokeColor=inherit;overflow=hidden;fillColor=none;top=0;left=0;bottom=0;right=0;pointerEvents=1;shadow=1;" vertex="1" parent="HM1GTfsJV7F2ZgDRPwna-69">
          <mxGeometry x="170" width="90" height="40" as="geometry">
            <mxRectangle width="90" height="40" as="alternateBounds" />
          </mxGeometry>
        </mxCell>
        <mxCell id="HM1GTfsJV7F2ZgDRPwna-73" value="&lt;b&gt;사후세계&lt;/b&gt;를 믿어 &lt;br&gt;&lt;b&gt;시체를 매장&lt;/b&gt;하는 풍습" style="shape=partialRectangle;html=1;whiteSpace=wrap;connectable=0;strokeColor=inherit;overflow=hidden;fillColor=none;top=0;left=0;bottom=0;right=0;pointerEvents=1;shadow=1;" vertex="1" parent="HM1GTfsJV7F2ZgDRPwna-69">
          <mxGeometry x="260" width="170" height="40" as="geometry">
            <mxRectangle width="170" height="40" as="alternateBounds" />
          </mxGeometry>
        </mxCell>
        <mxCell id="HM1GTfsJV7F2ZgDRPwna-74" value="&lt;b&gt;동굴벽화&lt;/b&gt;를 남김" style="shape=partialRectangle;html=1;whiteSpace=wrap;connectable=0;strokeColor=inherit;overflow=hidden;fillColor=none;top=0;left=0;bottom=0;right=0;pointerEvents=1;shadow=1;" vertex="1" parent="HM1GTfsJV7F2ZgDRPwna-69">
          <mxGeometry x="430" width="120" height="40" as="geometry">
            <mxRectangle width="120" height="40" as="alternateBounds" />
          </mxGeometry>
        </mxCell>
        <mxCell id="HM1GTfsJV7F2ZgDRPwna-76" value="&lt;p style=&quot;background:white&quot; class=&quot;MsoNormal&quot;&gt;+&lt;span style=&quot;font-size: 10pt; font-family: &amp;quot;맑은 고딕&amp;quot;;&quot;&gt;대표적 화석 인류인 크로마뇽인은 약&lt;span style=&quot;&quot; lang=&quot;EN-US&quot;&gt; 4&lt;/span&gt;만&lt;span style=&quot;&quot; lang=&quot;EN-US&quot;&gt; 5&lt;/span&gt;천 년 전에 출현한 현생인류이다.&lt;b&gt;&lt;span lang=&quot;EN-US&quot;&gt;&lt;/span&gt;&lt;/b&gt;&lt;/span&gt;&lt;/p&gt;" style="whiteSpace=wrap;html=1;startSize=30;fillColor=#fff2cc;strokeColor=#d6b656;shadow=1;" vertex="1" parent="1">
          <mxGeometry x="30" y="230" width="470" height="20" as="geometry" />
        </mxCell>
        <mxCell id="HM1GTfsJV7F2ZgDRPwna-103" style="edgeStyle=orthogonalEdgeStyle;orthogonalLoop=1;jettySize=auto;html=1;fontFamily=Helvetica;fontSize=12;fontColor=default;startSize=30;jumpStyle=none;shadow=1;rounded=0;noJump=1;entryX=0.143;entryY=-0.033;entryDx=0;entryDy=0;entryPerimeter=0;" edge="1" parent="1" source="HM1GTfsJV7F2ZgDRPwna-79" target="HM1GTfsJV7F2ZgDRPwna-94">
          <mxGeometry relative="1" as="geometry">
            <mxPoint x="640" y="100" as="targetPoint" />
            <Array as="points">
              <mxPoint x="670" y="90" />
              <mxPoint x="670" y="90" />
            </Array>
          </mxGeometry>
        </mxCell>
        <mxCell id="HM1GTfsJV7F2ZgDRPwna-140" style="edgeStyle=orthogonalEdgeStyle;shape=connector;rounded=0;orthogonalLoop=1;jettySize=auto;html=1;shadow=1;labelBackgroundColor=default;strokeColor=default;fontFamily=Helvetica;fontSize=12;fontColor=#333333;endArrow=classic;startSize=30;entryX=0;entryY=0.5;entryDx=0;entryDy=0;" edge="1" parent="1" source="HM1GTfsJV7F2ZgDRPwna-79" target="HM1GTfsJV7F2ZgDRPwna-163">
          <mxGeometry relative="1" as="geometry">
            <mxPoint x="1170" y="60" as="targetPoint" />
          </mxGeometry>
        </mxCell>
        <mxCell id="HM1GTfsJV7F2ZgDRPwna-79" value="&lt;b&gt;구석기 시대&lt;/b&gt;" style="rounded=1;whiteSpace=wrap;html=1;strokeColor=#666666;fontFamily=Helvetica;fontSize=12;startSize=30;fillColor=#f5f5f5;shadow=1;fontColor=#333333;" vertex="1" parent="1">
          <mxGeometry x="580" y="40" width="120" height="40" as="geometry" />
        </mxCell>
        <mxCell id="HM1GTfsJV7F2ZgDRPwna-220" style="edgeStyle=orthogonalEdgeStyle;shape=connector;rounded=0;orthogonalLoop=1;jettySize=auto;html=1;entryX=0.5;entryY=0;entryDx=0;entryDy=0;shadow=1;labelBackgroundColor=default;strokeColor=default;fontFamily=Helvetica;fontSize=12;fontColor=default;endArrow=classic;startSize=0;" edge="1" parent="1" source="HM1GTfsJV7F2ZgDRPwna-93" target="HM1GTfsJV7F2ZgDRPwna-106">
          <mxGeometry relative="1" as="geometry">
            <Array as="points">
              <mxPoint x="690" y="170" />
              <mxPoint x="690" y="170" />
            </Array>
          </mxGeometry>
        </mxCell>
        <mxCell id="HM1GTfsJV7F2ZgDRPwna-231" style="edgeStyle=orthogonalEdgeStyle;shape=connector;rounded=0;orthogonalLoop=1;jettySize=auto;html=1;entryX=0.75;entryY=0;entryDx=0;entryDy=0;shadow=1;labelBackgroundColor=default;strokeColor=default;fontFamily=Helvetica;fontSize=12;fontColor=default;endArrow=classic;startSize=0;" edge="1" parent="1" source="HM1GTfsJV7F2ZgDRPwna-93" target="HM1GTfsJV7F2ZgDRPwna-109">
          <mxGeometry relative="1" as="geometry">
            <Array as="points">
              <mxPoint x="990" y="170" />
              <mxPoint x="990" y="170" />
            </Array>
          </mxGeometry>
        </mxCell>
        <mxCell id="HM1GTfsJV7F2ZgDRPwna-237" style="edgeStyle=orthogonalEdgeStyle;shape=connector;rounded=0;orthogonalLoop=1;jettySize=auto;html=1;entryX=1;entryY=0.5;entryDx=0;entryDy=0;shadow=1;labelBackgroundColor=default;strokeColor=default;fontFamily=Helvetica;fontSize=12;fontColor=default;endArrow=classic;startSize=0;" edge="1" parent="1" source="HM1GTfsJV7F2ZgDRPwna-93" target="HM1GTfsJV7F2ZgDRPwna-112">
          <mxGeometry relative="1" as="geometry">
            <Array as="points">
              <mxPoint x="990" y="225" />
            </Array>
          </mxGeometry>
        </mxCell>
        <mxCell id="HM1GTfsJV7F2ZgDRPwna-93" value="" style="shape=table;startSize=0;container=1;collapsible=0;childLayout=tableLayout;fontFamily=Helvetica;fontSize=12;html=1;shadow=1;fillColor=#f5f5f5;strokeColor=#666666;fontColor=#333333;" vertex="1" parent="1">
          <mxGeometry x="590" y="110" width="560" height="60" as="geometry" />
        </mxCell>
        <mxCell id="HM1GTfsJV7F2ZgDRPwna-94" value="" style="shape=tableRow;horizontal=0;startSize=0;swimlaneHead=0;swimlaneBody=0;strokeColor=inherit;top=0;left=0;bottom=0;right=0;collapsible=0;dropTarget=0;fillColor=none;points=[[0,0.5],[1,0.5]];portConstraint=eastwest;fontFamily=Helvetica;fontSize=12;fontColor=default;html=1;shadow=1;" vertex="1" parent="HM1GTfsJV7F2ZgDRPwna-93">
          <mxGeometry width="560" height="23" as="geometry" />
        </mxCell>
        <mxCell id="HM1GTfsJV7F2ZgDRPwna-97" value="풍습(?)" style="shape=partialRectangle;html=1;whiteSpace=wrap;connectable=0;strokeColor=inherit;overflow=hidden;fillColor=none;top=0;left=0;bottom=0;right=0;pointerEvents=1;fontFamily=Helvetica;fontSize=12;fontColor=default;startSize=30;shadow=1;" vertex="1" parent="HM1GTfsJV7F2ZgDRPwna-94">
          <mxGeometry width="240" height="23" as="geometry">
            <mxRectangle width="240" height="23" as="alternateBounds" />
          </mxGeometry>
        </mxCell>
        <mxCell id="HM1GTfsJV7F2ZgDRPwna-95" value="도구" style="shape=partialRectangle;html=1;whiteSpace=wrap;connectable=0;strokeColor=inherit;overflow=hidden;fillColor=none;top=0;left=0;bottom=0;right=0;pointerEvents=1;fontFamily=Helvetica;fontSize=12;fontColor=default;startSize=30;shadow=1;" vertex="1" parent="HM1GTfsJV7F2ZgDRPwna-94">
          <mxGeometry x="240" width="150" height="23" as="geometry">
            <mxRectangle width="150" height="23" as="alternateBounds" />
          </mxGeometry>
        </mxCell>
        <mxCell id="HM1GTfsJV7F2ZgDRPwna-96" value="생활" style="shape=partialRectangle;html=1;whiteSpace=wrap;connectable=0;strokeColor=inherit;overflow=hidden;fillColor=none;top=0;left=0;bottom=0;right=0;pointerEvents=1;fontFamily=Helvetica;fontSize=12;fontColor=default;startSize=30;shadow=1;" vertex="1" parent="HM1GTfsJV7F2ZgDRPwna-94">
          <mxGeometry x="390" width="170" height="23" as="geometry">
            <mxRectangle width="170" height="23" as="alternateBounds" />
          </mxGeometry>
        </mxCell>
        <mxCell id="HM1GTfsJV7F2ZgDRPwna-214" value="" style="shape=tableRow;horizontal=0;startSize=0;swimlaneHead=0;swimlaneBody=0;strokeColor=inherit;top=0;left=0;bottom=0;right=0;collapsible=0;dropTarget=0;fillColor=none;points=[[0,0.5],[1,0.5]];portConstraint=eastwest;fontFamily=Helvetica;fontSize=12;fontColor=default;html=1;shadow=1;" vertex="1" parent="HM1GTfsJV7F2ZgDRPwna-93">
          <mxGeometry y="23" width="560" height="37" as="geometry" />
        </mxCell>
        <mxCell id="HM1GTfsJV7F2ZgDRPwna-215" value="다산과 풍요, 사냥의 성공 등을 기원하며&lt;br style=&quot;border-color: var(--border-color); color: rgb(51, 51, 51);&quot;&gt;&lt;span style=&quot;color: rgb(51, 51, 51);&quot;&gt;조각상을 만들거나 &lt;b&gt;동굴 벽화&lt;/b&gt;를 남기기도 함.&lt;/span&gt;" style="shape=partialRectangle;html=1;whiteSpace=wrap;connectable=0;strokeColor=inherit;overflow=hidden;fillColor=none;top=0;left=0;bottom=0;right=0;pointerEvents=1;fontFamily=Helvetica;fontSize=12;fontColor=default;startSize=30;shadow=1;" vertex="1" parent="HM1GTfsJV7F2ZgDRPwna-214">
          <mxGeometry width="240" height="37" as="geometry">
            <mxRectangle width="240" height="37" as="alternateBounds" />
          </mxGeometry>
        </mxCell>
        <mxCell id="HM1GTfsJV7F2ZgDRPwna-216" value="&lt;b&gt;주먹도끼, 찍개,찌르개등&lt;/b&gt;&lt;br&gt;(돌을 깨뜨려 만든&amp;nbsp;&lt;div style=&quot;box-sizing: content-box; padding: 0px; margin: 0px; color: transparent; position: absolute; cursor: text; transform-origin: 0% 0%; text-align: start; background-color: rgb(255, 255, 255); left: 299.963px; top: 314.276px; font-size: 15.2207px; font-family: sans-serif; transform: scaleX(0.853643);&quot;&gt;뗀석기&lt;/div&gt;&lt;b&gt;&lt;u&gt;뗀석기&lt;/u&gt;&lt;/b&gt;)" style="shape=partialRectangle;html=1;whiteSpace=wrap;connectable=0;strokeColor=inherit;overflow=hidden;fillColor=none;top=0;left=0;bottom=0;right=0;pointerEvents=1;fontFamily=Helvetica;fontSize=12;fontColor=default;startSize=30;shadow=1;" vertex="1" parent="HM1GTfsJV7F2ZgDRPwna-214">
          <mxGeometry x="240" width="150" height="37" as="geometry">
            <mxRectangle width="150" height="37" as="alternateBounds" />
          </mxGeometry>
        </mxCell>
        <mxCell id="HM1GTfsJV7F2ZgDRPwna-217" value="사냥에 협력이 필요해&lt;br&gt;무리 지어 다님." style="shape=partialRectangle;html=1;whiteSpace=wrap;connectable=0;strokeColor=inherit;overflow=hidden;fillColor=none;top=0;left=0;bottom=0;right=0;pointerEvents=1;fontFamily=Helvetica;fontSize=12;fontColor=default;startSize=30;shadow=1;" vertex="1" parent="HM1GTfsJV7F2ZgDRPwna-214">
          <mxGeometry x="390" width="170" height="37" as="geometry">
            <mxRectangle width="170" height="37" as="alternateBounds" />
          </mxGeometry>
        </mxCell>
        <mxCell id="HM1GTfsJV7F2ZgDRPwna-106" value="&lt;b&gt;의사소통을 위한 언어가 발달함.&lt;/b&gt;" style="rounded=0;whiteSpace=wrap;html=1;shadow=1;strokeColor=#666666;fontFamily=Helvetica;fontSize=12;startSize=30;fillColor=#f5f5f5;fontColor=#333333;" vertex="1" parent="1">
          <mxGeometry x="590" y="180" width="180" height="20" as="geometry" />
        </mxCell>
        <mxCell id="HM1GTfsJV7F2ZgDRPwna-109" value="사냥, 식물 뿌리나 열매를 모아&lt;br&gt;식량을 마련함." style="rounded=0;whiteSpace=wrap;html=1;shadow=1;strokeColor=#666666;fontFamily=Helvetica;fontSize=12;startSize=30;fillColor=#f5f5f5;fontColor=#333333;" vertex="1" parent="1">
          <mxGeometry x="1000" y="190" width="170" height="30" as="geometry" />
        </mxCell>
        <mxCell id="HM1GTfsJV7F2ZgDRPwna-112" value="먹을 것을먹을 것을 찾아 자주 이동해야 해서 &lt;b&gt;동굴&lt;/b&gt;이나 &lt;b&gt;&lt;u&gt;막집&lt;/u&gt;&lt;/b&gt;에서 생활했음." style="rounded=0;whiteSpace=wrap;html=1;shadow=1;fontFamily=Helvetica;fontSize=12;startSize=30;fillColor=#f5f5f5;strokeColor=#666666;fontColor=#333333;" vertex="1" parent="1">
          <mxGeometry x="700" y="210" width="240" height="30" as="geometry" />
        </mxCell>
        <mxCell id="HM1GTfsJV7F2ZgDRPwna-120" value="&lt;div style=&quot;box-sizing: content-box; padding: 0px; margin: 0px; color: transparent; position: absolute; cursor: text; transform-origin: 0% 0%; text-align: start; background-color: rgb(255, 255, 255); left: 430.794px; top: 469.654px; font-size: 16.3079px; font-family: serif; transform: scaleX(0.895664);&quot;&gt;사람이·죽으면·죽은·사람을·땅·&lt;/div&gt;&lt;div style=&quot;box-sizing: content-box; padding: 0px; margin: 0px; color: transparent; position: absolute; cursor: text; transform-origin: 0% 0%; text-align: start; background-color: rgb(255, 255, 255); left: 299.935px; top: 500.818px; font-size: 16.3079px; font-family: serif; transform: scaleX(0.892583);&quot;&gt;속에·묻고·장식품과·도구를·함께·넣기도·하였다.·또한·다산과·풍요,·사냥의·성공·&lt;/div&gt;&lt;div style=&quot;box-sizing: content-box; padding: 0px; margin: 0px; color: transparent; position: absolute; cursor: text; transform-origin: 0% 0%; text-align: start; background-color: rgb(255, 255, 255); left: 299.935px; top: 531.983px; font-size: 16.3079px; font-family: serif; transform: scaleX(0.887297);&quot;&gt;등을·기원하며·조각상을·만들거나·동굴·벽화를·남기기&lt;/div&gt;" style="text;html=1;align=center;verticalAlign=middle;resizable=0;points=[];autosize=1;strokeColor=none;fillColor=none;fontSize=12;fontFamily=Helvetica;fontColor=#333333;" vertex="1" parent="1">
          <mxGeometry x="920" y="322" width="20" height="10" as="geometry" />
        </mxCell>
        <mxCell id="HM1GTfsJV7F2ZgDRPwna-161" style="edgeStyle=orthogonalEdgeStyle;orthogonalLoop=1;jettySize=auto;html=1;fontFamily=Helvetica;fontSize=12;fontColor=default;startSize=30;jumpStyle=none;shadow=1;rounded=0;noJump=1;entryX=0.161;entryY=0.011;entryDx=0;entryDy=0;entryPerimeter=0;" edge="1" parent="1" source="HM1GTfsJV7F2ZgDRPwna-163">
          <mxGeometry relative="1" as="geometry">
            <mxPoint x="1260.1599999999999" y="110.33000000000004" as="targetPoint" />
            <Array as="points">
              <mxPoint x="1260" y="90" />
              <mxPoint x="1260" y="90" />
            </Array>
          </mxGeometry>
        </mxCell>
        <mxCell id="HM1GTfsJV7F2ZgDRPwna-304" style="edgeStyle=orthogonalEdgeStyle;shape=connector;rounded=0;orthogonalLoop=1;jettySize=auto;html=1;entryX=0;entryY=0.5;entryDx=0;entryDy=0;shadow=1;labelBackgroundColor=default;strokeColor=default;fontFamily=Helvetica;fontSize=12;fontColor=default;endArrow=classic;startSize=0;" edge="1" parent="1" source="HM1GTfsJV7F2ZgDRPwna-163" target="HM1GTfsJV7F2ZgDRPwna-301">
          <mxGeometry relative="1" as="geometry" />
        </mxCell>
        <mxCell id="HM1GTfsJV7F2ZgDRPwna-163" value="&lt;b&gt;신석기 시대&lt;/b&gt;" style="rounded=1;whiteSpace=wrap;html=1;strokeColor=#d6b656;fontFamily=Helvetica;fontSize=12;startSize=30;fillColor=#fff2cc;shadow=1;" vertex="1" parent="1">
          <mxGeometry x="1170" y="40" width="120" height="40" as="geometry" />
        </mxCell>
        <mxCell id="HM1GTfsJV7F2ZgDRPwna-238" style="edgeStyle=orthogonalEdgeStyle;shape=connector;rounded=0;orthogonalLoop=1;jettySize=auto;html=1;entryX=0.5;entryY=0;entryDx=0;entryDy=0;shadow=1;labelBackgroundColor=default;strokeColor=default;fontFamily=Helvetica;fontSize=12;fontColor=default;endArrow=classic;startSize=0;" edge="1" parent="1" source="HM1GTfsJV7F2ZgDRPwna-191" target="HM1GTfsJV7F2ZgDRPwna-229">
          <mxGeometry relative="1" as="geometry">
            <Array as="points">
              <mxPoint x="1440" y="170" />
              <mxPoint x="1440" y="170" />
            </Array>
          </mxGeometry>
        </mxCell>
        <mxCell id="HM1GTfsJV7F2ZgDRPwna-243" style="edgeStyle=orthogonalEdgeStyle;shape=connector;rounded=0;orthogonalLoop=1;jettySize=auto;html=1;entryX=0.5;entryY=0;entryDx=0;entryDy=0;shadow=1;labelBackgroundColor=default;strokeColor=default;fontFamily=Helvetica;fontSize=12;fontColor=default;endArrow=classic;startSize=0;" edge="1" parent="1" source="HM1GTfsJV7F2ZgDRPwna-191" target="HM1GTfsJV7F2ZgDRPwna-241">
          <mxGeometry relative="1" as="geometry">
            <Array as="points">
              <mxPoint x="1540" y="170" />
              <mxPoint x="1540" y="170" />
            </Array>
          </mxGeometry>
        </mxCell>
        <mxCell id="HM1GTfsJV7F2ZgDRPwna-283" style="edgeStyle=orthogonalEdgeStyle;shape=connector;rounded=0;orthogonalLoop=1;jettySize=auto;html=1;shadow=1;labelBackgroundColor=default;strokeColor=default;fontFamily=Helvetica;fontSize=12;fontColor=default;endArrow=classic;startSize=0;entryX=1;entryY=0.5;entryDx=0;entryDy=0;" edge="1" parent="1" source="HM1GTfsJV7F2ZgDRPwna-191" target="HM1GTfsJV7F2ZgDRPwna-244">
          <mxGeometry relative="1" as="geometry">
            <mxPoint x="1790" y="170" as="targetPoint" />
            <Array as="points">
              <mxPoint x="1800" y="140" />
              <mxPoint x="1800" y="90" />
            </Array>
          </mxGeometry>
        </mxCell>
        <mxCell id="HM1GTfsJV7F2ZgDRPwna-285" style="edgeStyle=orthogonalEdgeStyle;shape=connector;rounded=0;orthogonalLoop=1;jettySize=auto;html=1;shadow=1;labelBackgroundColor=default;strokeColor=default;fontFamily=Helvetica;fontSize=12;fontColor=default;endArrow=classic;startSize=0;entryX=0.5;entryY=0;entryDx=0;entryDy=0;" edge="1" parent="1" source="HM1GTfsJV7F2ZgDRPwna-191" target="HM1GTfsJV7F2ZgDRPwna-286">
          <mxGeometry relative="1" as="geometry">
            <mxPoint x="1680" y="190" as="targetPoint" />
            <Array as="points">
              <mxPoint x="1670" y="180" />
              <mxPoint x="1670" y="180" />
            </Array>
          </mxGeometry>
        </mxCell>
        <mxCell id="HM1GTfsJV7F2ZgDRPwna-191" value="" style="shape=table;startSize=0;container=1;collapsible=0;childLayout=tableLayout;shadow=1;strokeColor=#d6b656;fontFamily=Helvetica;fontSize=12;fillColor=#fff2cc;html=1;" vertex="1" parent="1">
          <mxGeometry x="1170" y="110" width="590" height="60" as="geometry" />
        </mxCell>
        <mxCell id="HM1GTfsJV7F2ZgDRPwna-192" value="" style="shape=tableRow;horizontal=0;startSize=0;swimlaneHead=0;swimlaneBody=0;strokeColor=inherit;top=0;left=0;bottom=0;right=0;collapsible=0;dropTarget=0;fillColor=none;points=[[0,0.5],[1,0.5]];portConstraint=eastwest;shadow=1;fontFamily=Helvetica;fontSize=12;fontColor=default;html=1;" vertex="1" parent="HM1GTfsJV7F2ZgDRPwna-191">
          <mxGeometry width="590" height="20" as="geometry" />
        </mxCell>
        <mxCell id="HM1GTfsJV7F2ZgDRPwna-193" value="풍습(?)" style="shape=partialRectangle;html=1;whiteSpace=wrap;connectable=0;strokeColor=inherit;overflow=hidden;fillColor=none;top=0;left=0;bottom=0;right=0;pointerEvents=1;shadow=1;fontFamily=Helvetica;fontSize=12;fontColor=default;startSize=0;" vertex="1" parent="HM1GTfsJV7F2ZgDRPwna-192">
          <mxGeometry width="197" height="20" as="geometry">
            <mxRectangle width="197" height="20" as="alternateBounds" />
          </mxGeometry>
        </mxCell>
        <mxCell id="HM1GTfsJV7F2ZgDRPwna-194" value="도구" style="shape=partialRectangle;html=1;whiteSpace=wrap;connectable=0;strokeColor=inherit;overflow=hidden;fillColor=none;top=0;left=0;bottom=0;right=0;pointerEvents=1;shadow=1;fontFamily=Helvetica;fontSize=12;fontColor=default;startSize=0;" vertex="1" parent="HM1GTfsJV7F2ZgDRPwna-192">
          <mxGeometry x="197" width="196" height="20" as="geometry">
            <mxRectangle width="196" height="20" as="alternateBounds" />
          </mxGeometry>
        </mxCell>
        <mxCell id="HM1GTfsJV7F2ZgDRPwna-195" value="생활" style="shape=partialRectangle;html=1;whiteSpace=wrap;connectable=0;strokeColor=inherit;overflow=hidden;fillColor=none;top=0;left=0;bottom=0;right=0;pointerEvents=1;shadow=1;fontFamily=Helvetica;fontSize=12;fontColor=default;startSize=0;" vertex="1" parent="HM1GTfsJV7F2ZgDRPwna-192">
          <mxGeometry x="393" width="197" height="20" as="geometry">
            <mxRectangle width="197" height="20" as="alternateBounds" />
          </mxGeometry>
        </mxCell>
        <mxCell id="HM1GTfsJV7F2ZgDRPwna-196" value="" style="shape=tableRow;horizontal=0;startSize=0;swimlaneHead=0;swimlaneBody=0;strokeColor=inherit;top=0;left=0;bottom=0;right=0;collapsible=0;dropTarget=0;fillColor=none;points=[[0,0.5],[1,0.5]];portConstraint=eastwest;shadow=1;fontFamily=Helvetica;fontSize=12;fontColor=default;html=1;" vertex="1" parent="HM1GTfsJV7F2ZgDRPwna-191">
          <mxGeometry y="20" width="590" height="40" as="geometry" />
        </mxCell>
        <mxCell id="HM1GTfsJV7F2ZgDRPwna-197" value="조, 기장 등을 &lt;u&gt;재배&lt;/u&gt;하는 &lt;b&gt;&lt;u&gt;농경&lt;/u&gt; 생활&lt;/b&gt;과&lt;br&gt;짐승을 기르는 &lt;b&gt;&lt;u&gt;목축&lt;/u&gt;&lt;/b&gt;을 함" style="shape=partialRectangle;html=1;whiteSpace=wrap;connectable=0;strokeColor=inherit;overflow=hidden;fillColor=none;top=0;left=0;bottom=0;right=0;pointerEvents=1;shadow=1;fontFamily=Helvetica;fontSize=12;fontColor=default;startSize=0;" vertex="1" parent="HM1GTfsJV7F2ZgDRPwna-196">
          <mxGeometry width="197" height="40" as="geometry">
            <mxRectangle width="197" height="40" as="alternateBounds" />
          </mxGeometry>
        </mxCell>
        <mxCell id="HM1GTfsJV7F2ZgDRPwna-198" value="돌을 갈아서 만든 &lt;b&gt;&lt;u&gt;간석기&lt;/u&gt;&lt;/b&gt;를 사용함." style="shape=partialRectangle;html=1;whiteSpace=wrap;connectable=0;strokeColor=inherit;overflow=hidden;fillColor=none;top=0;left=0;bottom=0;right=0;pointerEvents=1;shadow=1;fontFamily=Helvetica;fontSize=12;fontColor=default;startSize=0;" vertex="1" parent="HM1GTfsJV7F2ZgDRPwna-196">
          <mxGeometry x="197" width="196" height="40" as="geometry">
            <mxRectangle width="196" height="40" as="alternateBounds" />
          </mxGeometry>
        </mxCell>
        <mxCell id="HM1GTfsJV7F2ZgDRPwna-199" value="이동하지 않아도 되어 &lt;b&gt;&lt;u&gt;움집&lt;/u&gt;&lt;/b&gt;을 지어&amp;nbsp;&lt;b&gt;정착 생활&lt;/b&gt;을 하게 되었다." style="shape=partialRectangle;html=1;whiteSpace=wrap;connectable=0;strokeColor=inherit;overflow=hidden;fillColor=none;top=0;left=0;bottom=0;right=0;pointerEvents=1;shadow=1;fontFamily=Helvetica;fontSize=12;fontColor=default;startSize=0;" vertex="1" parent="HM1GTfsJV7F2ZgDRPwna-196">
          <mxGeometry x="393" width="197" height="40" as="geometry">
            <mxRectangle width="197" height="40" as="alternateBounds" />
          </mxGeometry>
        </mxCell>
        <mxCell id="HM1GTfsJV7F2ZgDRPwna-219" style="edgeStyle=orthogonalEdgeStyle;shape=connector;rounded=0;orthogonalLoop=1;jettySize=auto;html=1;exitX=0.5;exitY=1;exitDx=0;exitDy=0;shadow=1;labelBackgroundColor=default;strokeColor=default;fontFamily=Helvetica;fontSize=12;fontColor=default;endArrow=classic;startSize=0;" edge="1" parent="1" source="HM1GTfsJV7F2ZgDRPwna-106" target="HM1GTfsJV7F2ZgDRPwna-106">
          <mxGeometry relative="1" as="geometry" />
        </mxCell>
        <mxCell id="HM1GTfsJV7F2ZgDRPwna-229" value="&lt;b&gt;&lt;u&gt;간석기&lt;/u&gt;&lt;/b&gt;는 뗀석기에 비해 훨씬 정교하고 날카로워 작고 빠른 동물을 잡을 수 있었음. (낚시도 함)" style="whiteSpace=wrap;html=1;fillColor=#fff2cc;strokeColor=#d6b656;startSize=0;shadow=1;" vertex="1" parent="1">
          <mxGeometry x="1240" y="210" width="269" height="30" as="geometry" />
        </mxCell>
        <mxCell id="HM1GTfsJV7F2ZgDRPwna-241" value="&lt;b&gt;&lt;u&gt;토기&lt;/u&gt;&lt;/b&gt;로 곡식을 저장" style="rounded=0;whiteSpace=wrap;html=1;shadow=1;strokeColor=#d6b656;fontFamily=Helvetica;fontSize=12;startSize=0;fillColor=#fff2cc;" vertex="1" parent="1">
          <mxGeometry x="1400" y="182.5" width="120" height="17.5" as="geometry" />
        </mxCell>
        <mxCell id="HM1GTfsJV7F2ZgDRPwna-244" value="이처럼 신석기 시대의 &lt;b&gt;&lt;u&gt;농경&lt;/u&gt;&lt;/b&gt;과 &lt;b&gt;&lt;u&gt;목축 생활&lt;/u&gt;&lt;/b&gt;이 가져온 인류 생활의 큰 변화를 &lt;i style=&quot;&quot;&gt;&lt;u&gt;&lt;b&gt;신석기 혁명&lt;/b&gt;&lt;/u&gt;&lt;/i&gt; 이라고 함" style="rounded=1;whiteSpace=wrap;html=1;shadow=1;fontFamily=Helvetica;fontSize=12;startSize=0;fillColor=#fad7ac;strokeColor=#b46504;" vertex="1" parent="1">
          <mxGeometry x="1280" y="80" width="510" height="20" as="geometry" />
        </mxCell>
        <mxCell id="HM1GTfsJV7F2ZgDRPwna-265" style="edgeStyle=orthogonalEdgeStyle;orthogonalLoop=1;jettySize=auto;html=1;fontFamily=Helvetica;fontSize=12;fontColor=default;startSize=30;jumpStyle=none;shadow=1;rounded=0;noJump=1;entryX=0.161;entryY=0.011;entryDx=0;entryDy=0;entryPerimeter=0;" edge="1" parent="1" source="HM1GTfsJV7F2ZgDRPwna-267">
          <mxGeometry relative="1" as="geometry">
            <mxPoint x="1900.1599999999999" y="110.33000000000004" as="targetPoint" />
            <Array as="points">
              <mxPoint x="1900" y="90" />
              <mxPoint x="1900" y="90" />
            </Array>
          </mxGeometry>
        </mxCell>
        <mxCell id="HM1GTfsJV7F2ZgDRPwna-266" style="edgeStyle=orthogonalEdgeStyle;shape=connector;rounded=0;orthogonalLoop=1;jettySize=auto;html=1;shadow=1;labelBackgroundColor=default;strokeColor=default;fontFamily=Helvetica;fontSize=12;fontColor=#333333;endArrow=classic;startSize=30;entryX=0;entryY=0.5;entryDx=0;entryDy=0;" edge="1" parent="1" source="HM1GTfsJV7F2ZgDRPwna-267">
          <mxGeometry relative="1" as="geometry">
            <mxPoint x="2400" y="60" as="targetPoint" />
          </mxGeometry>
        </mxCell>
        <mxCell id="HM1GTfsJV7F2ZgDRPwna-267" value="&lt;b&gt;신석기 시대&lt;/b&gt;" style="rounded=1;whiteSpace=wrap;html=1;strokeColor=#d6b656;fontFamily=Helvetica;fontSize=12;startSize=30;fillColor=#fff2cc;shadow=1;" vertex="1" parent="1">
          <mxGeometry x="1830" y="40" width="120" height="40" as="geometry" />
        </mxCell>
        <mxCell id="HM1GTfsJV7F2ZgDRPwna-268" style="edgeStyle=orthogonalEdgeStyle;shape=connector;rounded=0;orthogonalLoop=1;jettySize=auto;html=1;entryX=0.5;entryY=0;entryDx=0;entryDy=0;shadow=1;labelBackgroundColor=default;strokeColor=default;fontFamily=Helvetica;fontSize=12;fontColor=default;endArrow=classic;startSize=0;" edge="1" parent="1" source="HM1GTfsJV7F2ZgDRPwna-270" target="HM1GTfsJV7F2ZgDRPwna-279">
          <mxGeometry relative="1" as="geometry">
            <Array as="points">
              <mxPoint x="2080" y="170" />
              <mxPoint x="2080" y="170" />
            </Array>
          </mxGeometry>
        </mxCell>
        <mxCell id="HM1GTfsJV7F2ZgDRPwna-269" style="edgeStyle=orthogonalEdgeStyle;shape=connector;rounded=0;orthogonalLoop=1;jettySize=auto;html=1;entryX=0.5;entryY=0;entryDx=0;entryDy=0;shadow=1;labelBackgroundColor=default;strokeColor=default;fontFamily=Helvetica;fontSize=12;fontColor=default;endArrow=classic;startSize=0;" edge="1" parent="1" source="HM1GTfsJV7F2ZgDRPwna-270" target="HM1GTfsJV7F2ZgDRPwna-280">
          <mxGeometry relative="1" as="geometry">
            <Array as="points">
              <mxPoint x="2180" y="170" />
              <mxPoint x="2180" y="170" />
            </Array>
          </mxGeometry>
        </mxCell>
        <mxCell id="HM1GTfsJV7F2ZgDRPwna-270" value="" style="shape=table;startSize=0;container=1;collapsible=0;childLayout=tableLayout;shadow=1;strokeColor=#d6b656;fontFamily=Helvetica;fontSize=12;fillColor=#fff2cc;html=1;" vertex="1" parent="1">
          <mxGeometry x="1810" y="110" width="590" height="60" as="geometry" />
        </mxCell>
        <mxCell id="HM1GTfsJV7F2ZgDRPwna-271" value="" style="shape=tableRow;horizontal=0;startSize=0;swimlaneHead=0;swimlaneBody=0;strokeColor=inherit;top=0;left=0;bottom=0;right=0;collapsible=0;dropTarget=0;fillColor=none;points=[[0,0.5],[1,0.5]];portConstraint=eastwest;shadow=1;fontFamily=Helvetica;fontSize=12;fontColor=default;html=1;" vertex="1" parent="HM1GTfsJV7F2ZgDRPwna-270">
          <mxGeometry width="590" height="20" as="geometry" />
        </mxCell>
        <mxCell id="HM1GTfsJV7F2ZgDRPwna-272" value="풍습(?)" style="shape=partialRectangle;html=1;whiteSpace=wrap;connectable=0;strokeColor=inherit;overflow=hidden;fillColor=none;top=0;left=0;bottom=0;right=0;pointerEvents=1;shadow=1;fontFamily=Helvetica;fontSize=12;fontColor=default;startSize=0;" vertex="1" parent="HM1GTfsJV7F2ZgDRPwna-271">
          <mxGeometry width="197" height="20" as="geometry">
            <mxRectangle width="197" height="20" as="alternateBounds" />
          </mxGeometry>
        </mxCell>
        <mxCell id="HM1GTfsJV7F2ZgDRPwna-273" value="도구" style="shape=partialRectangle;html=1;whiteSpace=wrap;connectable=0;strokeColor=inherit;overflow=hidden;fillColor=none;top=0;left=0;bottom=0;right=0;pointerEvents=1;shadow=1;fontFamily=Helvetica;fontSize=12;fontColor=default;startSize=0;" vertex="1" parent="HM1GTfsJV7F2ZgDRPwna-271">
          <mxGeometry x="197" width="196" height="20" as="geometry">
            <mxRectangle width="196" height="20" as="alternateBounds" />
          </mxGeometry>
        </mxCell>
        <mxCell id="HM1GTfsJV7F2ZgDRPwna-274" value="생활" style="shape=partialRectangle;html=1;whiteSpace=wrap;connectable=0;strokeColor=inherit;overflow=hidden;fillColor=none;top=0;left=0;bottom=0;right=0;pointerEvents=1;shadow=1;fontFamily=Helvetica;fontSize=12;fontColor=default;startSize=0;" vertex="1" parent="HM1GTfsJV7F2ZgDRPwna-271">
          <mxGeometry x="393" width="197" height="20" as="geometry">
            <mxRectangle width="197" height="20" as="alternateBounds" />
          </mxGeometry>
        </mxCell>
        <mxCell id="HM1GTfsJV7F2ZgDRPwna-275" value="" style="shape=tableRow;horizontal=0;startSize=0;swimlaneHead=0;swimlaneBody=0;strokeColor=inherit;top=0;left=0;bottom=0;right=0;collapsible=0;dropTarget=0;fillColor=none;points=[[0,0.5],[1,0.5]];portConstraint=eastwest;shadow=1;fontFamily=Helvetica;fontSize=12;fontColor=default;html=1;" vertex="1" parent="HM1GTfsJV7F2ZgDRPwna-270">
          <mxGeometry y="20" width="590" height="40" as="geometry" />
        </mxCell>
        <mxCell id="HM1GTfsJV7F2ZgDRPwna-276" value="조, 기장 등을 &lt;u&gt;재배&lt;/u&gt;하는 &lt;b&gt;농경 생활&lt;/b&gt;과&lt;br&gt;짐승을 기르는 &lt;b&gt;&lt;u&gt;목축&lt;/u&gt;&lt;/b&gt;을 함" style="shape=partialRectangle;html=1;whiteSpace=wrap;connectable=0;strokeColor=inherit;overflow=hidden;fillColor=none;top=0;left=0;bottom=0;right=0;pointerEvents=1;shadow=1;fontFamily=Helvetica;fontSize=12;fontColor=default;startSize=0;" vertex="1" parent="HM1GTfsJV7F2ZgDRPwna-275">
          <mxGeometry width="197" height="40" as="geometry">
            <mxRectangle width="197" height="40" as="alternateBounds" />
          </mxGeometry>
        </mxCell>
        <mxCell id="HM1GTfsJV7F2ZgDRPwna-277" value="돌을 갈아서 만든 &lt;b&gt;&lt;u&gt;간석기&lt;/u&gt;&lt;/b&gt;를 사용함." style="shape=partialRectangle;html=1;whiteSpace=wrap;connectable=0;strokeColor=inherit;overflow=hidden;fillColor=none;top=0;left=0;bottom=0;right=0;pointerEvents=1;shadow=1;fontFamily=Helvetica;fontSize=12;fontColor=default;startSize=0;" vertex="1" parent="HM1GTfsJV7F2ZgDRPwna-275">
          <mxGeometry x="197" width="196" height="40" as="geometry">
            <mxRectangle width="196" height="40" as="alternateBounds" />
          </mxGeometry>
        </mxCell>
        <mxCell id="HM1GTfsJV7F2ZgDRPwna-278" value="먹을 것을 찾아 이동하지 않아도&lt;br&gt;되어 &lt;b&gt;정착 생활&lt;/b&gt;을 하게 되었다." style="shape=partialRectangle;html=1;whiteSpace=wrap;connectable=0;strokeColor=inherit;overflow=hidden;fillColor=none;top=0;left=0;bottom=0;right=0;pointerEvents=1;shadow=1;fontFamily=Helvetica;fontSize=12;fontColor=default;startSize=0;" vertex="1" parent="HM1GTfsJV7F2ZgDRPwna-275">
          <mxGeometry x="393" width="197" height="40" as="geometry">
            <mxRectangle width="197" height="40" as="alternateBounds" />
          </mxGeometry>
        </mxCell>
        <mxCell id="HM1GTfsJV7F2ZgDRPwna-279" value="&lt;b&gt;&lt;u&gt;간석기&lt;/u&gt;&lt;/b&gt;는 뗀석기에 비해 훨씬 정교하고 날카로워 작고 빠른 동물을 잡을 수 있었음." style="whiteSpace=wrap;html=1;fillColor=#fff2cc;strokeColor=#d6b656;startSize=0;shadow=1;" vertex="1" parent="1">
          <mxGeometry x="1880" y="210" width="269" height="30" as="geometry" />
        </mxCell>
        <mxCell id="HM1GTfsJV7F2ZgDRPwna-280" value="&lt;b&gt;&lt;u&gt;토기&lt;/u&gt;&lt;/b&gt;로 곡식을 저장" style="rounded=0;whiteSpace=wrap;html=1;shadow=1;strokeColor=#d6b656;fontFamily=Helvetica;fontSize=12;startSize=0;fillColor=#fff2cc;" vertex="1" parent="1">
          <mxGeometry x="2040" y="182.5" width="120" height="17.5" as="geometry" />
        </mxCell>
        <mxCell id="HM1GTfsJV7F2ZgDRPwna-281" value="이처럼 신석기 시대의 농경과 목축 생활이 가져온 인류 생활의 큰 변화를 &lt;i style=&quot;&quot;&gt;&lt;u&gt;&lt;b&gt;신석기 혁명&lt;/b&gt;&lt;/u&gt;&lt;/i&gt; 이라고 함" style="rounded=0;whiteSpace=wrap;html=1;shadow=1;fontFamily=Helvetica;fontSize=12;startSize=0;fillColor=#fad7ac;strokeColor=#b46504;" vertex="1" parent="1">
          <mxGeometry x="1940" y="80" width="510" height="20" as="geometry" />
        </mxCell>
        <mxCell id="HM1GTfsJV7F2ZgDRPwna-282" style="edgeStyle=orthogonalEdgeStyle;shape=connector;rounded=0;orthogonalLoop=1;jettySize=auto;html=1;entryX=0.941;entryY=1;entryDx=0;entryDy=0;entryPerimeter=0;shadow=1;labelBackgroundColor=default;strokeColor=default;fontFamily=Helvetica;fontSize=12;fontColor=default;endArrow=classic;startSize=0;" edge="1" parent="1" source="HM1GTfsJV7F2ZgDRPwna-275" target="HM1GTfsJV7F2ZgDRPwna-281">
          <mxGeometry relative="1" as="geometry" />
        </mxCell>
        <mxCell id="HM1GTfsJV7F2ZgDRPwna-286" value="뼈바늘을 이용하여 옷을 만들고 동물의 뼈, 조개껍데기 등으로 몸을 &lt;b&gt;치장&lt;/b&gt;하기도 하였다. 한편, 태양이나 특정 동물, 영혼 등을 &lt;b&gt;숭배&lt;/b&gt;하기도 하였다." style="rounded=0;whiteSpace=wrap;html=1;shadow=1;strokeColor=#d6b656;fontFamily=Helvetica;fontSize=12;startSize=0;fillColor=#fff2cc;" vertex="1" parent="1">
          <mxGeometry x="1530" y="182.5" width="270" height="40" as="geometry" />
        </mxCell>
        <mxCell id="HM1GTfsJV7F2ZgDRPwna-291" style="edgeStyle=orthogonalEdgeStyle;shape=connector;rounded=0;orthogonalLoop=1;jettySize=auto;html=1;shadow=1;labelBackgroundColor=default;strokeColor=default;fontFamily=Helvetica;fontSize=12;fontColor=default;endArrow=classic;startSize=0;entryX=0.5;entryY=0;entryDx=0;entryDy=0;" edge="1" parent="1" source="HM1GTfsJV7F2ZgDRPwna-289" target="HM1GTfsJV7F2ZgDRPwna-163">
          <mxGeometry relative="1" as="geometry">
            <mxPoint x="1230" y="20" as="targetPoint" />
            <Array as="points">
              <mxPoint x="1230" y="20" />
            </Array>
          </mxGeometry>
        </mxCell>
        <mxCell id="HM1GTfsJV7F2ZgDRPwna-292" style="edgeStyle=orthogonalEdgeStyle;shape=connector;rounded=0;orthogonalLoop=1;jettySize=auto;html=1;entryX=0.5;entryY=0;entryDx=0;entryDy=0;shadow=1;labelBackgroundColor=default;strokeColor=default;fontFamily=Helvetica;fontSize=12;fontColor=default;endArrow=classic;startSize=0;" edge="1" parent="1" source="HM1GTfsJV7F2ZgDRPwna-289" target="HM1GTfsJV7F2ZgDRPwna-79">
          <mxGeometry relative="1" as="geometry" />
        </mxCell>
        <mxCell id="HM1GTfsJV7F2ZgDRPwna-289" value="계급이 나누어지지 않은 &lt;b&gt;&lt;u&gt;평등한 사회&lt;/u&gt;&lt;/b&gt;" style="rounded=1;whiteSpace=wrap;html=1;shadow=1;strokeColor=#6f6958;fontFamily=Helvetica;fontSize=12;startSize=0;fillColor=#fbf4e0;gradientColor=none;glass=0;" vertex="1" parent="1">
          <mxGeometry x="730" y="10" width="420" height="20" as="geometry" />
        </mxCell>
        <mxCell id="HM1GTfsJV7F2ZgDRPwna-305" style="edgeStyle=orthogonalEdgeStyle;shape=connector;rounded=0;orthogonalLoop=1;jettySize=auto;html=1;entryX=0;entryY=0.5;entryDx=0;entryDy=0;shadow=1;labelBackgroundColor=default;strokeColor=#6F0000;fontFamily=Helvetica;fontSize=12;fontColor=default;endArrow=classic;startSize=0;fillColor=#a20025;" edge="1" parent="1" source="HM1GTfsJV7F2ZgDRPwna-301" target="HM1GTfsJV7F2ZgDRPwna-267">
          <mxGeometry relative="1" as="geometry" />
        </mxCell>
        <mxCell id="HM1GTfsJV7F2ZgDRPwna-301" value="홍수나 가뭄이 들면 농사를 짓기 위해서&amp;nbsp; 댐 또는 수로를 만들어야 했다." style="rounded=1;whiteSpace=wrap;html=1;shadow=1;strokeColor=#36393d;fontFamily=Helvetica;fontSize=12;fontColor=default;startSize=0;fillColor=#eeeeee;" vertex="1" parent="1">
          <mxGeometry x="1300" y="45" width="510" height="30" as="geometry" />
        </mxCell>
      </root>
    </mxGraphModel>
  </diagram>
</mxfile>
